<svg width="17" height="17" viewBox="0 0 17 17" fill="none" xmlns="http://www.w3.org/2000/svg">
<path d="M16.8963 8.24931C17.0346 8.38759 17.0346 8.61178 16.8963 8.7501L10.1672 15.4791C9.44216 16.2042 8.26655 16.2042 7.54147 15.4791C6.8164 14.7541 6.8164 13.5785 7.54147 12.8534L10.124 10.2708L1.77076 10.2708C0.792778 10.2708 -3.24249e-05 9.47803 -3.24249e-05 8.50005C-3.24249e-05 7.52207 0.792778 6.72926 1.77076 6.72926L10.124 6.72926L7.54151 4.14672C6.81643 3.42165 6.81643 2.24604 7.54151 1.52096C8.26659 0.795885 9.44219 0.795885 10.1673 1.52096L16.8963 8.24931Z" fill="#939393"/>
</svg>
