<svg width="16" height="16" viewBox="0 0 16 16" fill="none" xmlns="http://www.w3.org/2000/svg">
<path d="M5.10397 12.4453C4.18142 12.4453 3.43359 13.1932 3.43359 14.1157C3.43359 15.0382 4.18146 15.7861 5.10397 15.7861C6.02651 15.7861 6.77434 15.0382 6.77434 14.1157C6.77437 13.1932 6.02651 12.4453 5.10397 12.4453ZM5.10397 15.0437C4.59145 15.0437 4.17599 14.6282 4.17599 14.1157C4.17599 13.6032 4.59145 13.1877 5.10397 13.1877C5.61648 13.1877 6.03194 13.6032 6.03194 14.1157C6.03198 14.6282 5.61648 15.0437 5.10397 15.0437Z" fill="orange" stroke="orange" stroke-width="0.5"/>
<path d="M12.1567 12.4453C11.2342 12.4453 10.4863 13.1932 10.4863 14.1157C10.4863 15.0382 11.2342 15.7861 12.1567 15.7861C13.0792 15.7861 13.8271 15.0382 13.8271 14.1157C13.8271 13.1932 13.0792 12.4453 12.1567 12.4453ZM12.1567 15.0437C11.6442 15.0437 11.2287 14.6282 11.2287 14.1157C11.2287 13.6032 11.6442 13.1877 12.1567 13.1877C12.6692 13.1877 13.0847 13.6032 13.0847 14.1157C13.0847 14.6282 12.6692 15.0437 12.1567 15.0437Z" fill="orange" stroke="orange" stroke-width="0.5"/>
<path d="M15.9243 2.7014C15.847 2.61696 15.7413 2.5641 15.6274 2.55291L3.54494 2.38587L3.21086 1.36507C2.97551 0.682677 2.33649 0.221993 1.6147 0.214355H0.371198C0.166185 0.214355 0 0.38054 0 0.585553C0 0.790566 0.166185 0.95675 0.371198 0.95675H1.6147C2.0183 0.965667 2.37369 1.22482 2.50559 1.60635L4.86269 8.71477L4.67711 9.14163C4.47011 9.67543 4.53228 10.2762 4.84415 10.7563C5.15304 11.2279 5.67269 11.5189 6.23615 11.5359H13.4559C13.661 11.5359 13.8271 11.3697 13.8271 11.1647C13.8271 10.9596 13.661 10.7935 13.4559 10.7935H6.23611C5.91792 10.7855 5.62502 10.6181 5.45659 10.348C5.29005 10.0812 5.25584 9.75255 5.3638 9.45713L5.5123 9.12306L13.326 8.30641C14.1843 8.21188 14.8903 7.58764 15.0892 6.74738L15.9801 3.01686C16.0202 2.90943 15.9989 2.78862 15.9243 2.7014ZM14.3653 6.58038C14.2448 7.12128 13.7856 7.52025 13.2332 7.56405L5.5123 8.36212L3.78622 3.12827L15.1634 3.2953L14.3653 6.58038Z" fill="orange" stroke="orange" stroke-width="0.5"/>
</svg>
